<svg viewBox="0 0 24 24" xmlns="http://www.w3.org/2000/svg"><path d="m3.919 8h-.838c-1.147 0-2.081-.934-2.081-2.081v-.838c0-1.147.934-2.081 2.081-2.081h.838c1.147 0 2.081.934 2.081 2.081v.838c0 1.147-.934 2.081-2.081 2.081zm-.838-4c-.596 0-1.081.485-1.081 1.081v.838c0 .596.485 1.081 1.081 1.081h.838c.596 0 1.081-.485 1.081-1.081v-.838c0-.596-.485-1.081-1.081-1.081z"/><path d="m3.919 15h-.838c-1.147 0-2.081-.934-2.081-2.081v-.838c0-1.147.934-2.081 2.081-2.081h.838c1.147 0 2.081.934 2.081 2.081v.838c0 1.147-.934 2.081-2.081 2.081zm-.838-4c-.596 0-1.081.485-1.081 1.081v.838c0 .596.485 1.081 1.081 1.081h.838c.596 0 1.081-.485 1.081-1.081v-.838c0-.596-.485-1.081-1.081-1.081z"/><path d="m3.919 22h-.838c-1.147 0-2.081-.934-2.081-2.081v-.838c0-1.147.934-2.081 2.081-2.081h.838c1.147 0 2.081.934 2.081 2.081v.838c0 1.147-.934 2.081-2.081 2.081zm-.838-4c-.596 0-1.081.485-1.081 1.081v.838c0 .596.485 1.081 1.081 1.081h.838c.596 0 1.081-.485 1.081-1.081v-.838c0-.596-.485-1.081-1.081-1.081z"/><path d="m21.919 8h-11.838c-1.147 0-2.081-.934-2.081-2.081v-.838c0-1.147.934-2.081 2.081-2.081h11.838c1.147 0 2.081.934 2.081 2.081v.838c0 1.147-.934 2.081-2.081 2.081zm-11.838-4c-.596 0-1.081.485-1.081 1.081v.838c0 .596.485 1.081 1.081 1.081h11.838c.596 0 1.081-.485 1.081-1.081v-.838c0-.596-.485-1.081-1.081-1.081z"/><path d="m21.919 15h-11.838c-1.147 0-2.081-.934-2.081-2.081v-.838c0-1.147.934-2.081 2.081-2.081h11.838c1.147 0 2.081.934 2.081 2.081v.838c0 1.147-.934 2.081-2.081 2.081zm-11.838-4c-.596 0-1.081.485-1.081 1.081v.838c0 .596.485 1.081 1.081 1.081h11.838c.596 0 1.081-.485 1.081-1.081v-.838c0-.596-.485-1.081-1.081-1.081z"/><path d="m21.919 22h-11.838c-1.147 0-2.081-.934-2.081-2.081v-.838c0-1.147.934-2.081 2.081-2.081h11.838c1.147 0 2.081.934 2.081 2.081v.838c0 1.147-.934 2.081-2.081 2.081zm-11.838-4c-.596 0-1.081.485-1.081 1.081v.838c0 .596.485 1.081 1.081 1.081h11.838c.596 0 1.081-.485 1.081-1.081v-.838c0-.596-.485-1.081-1.081-1.081z"/></svg>